<svg xmlns="http://www.w3.org/2000/svg" width="805" height="805" viewBox="0 0 805 805">
   <path fill="#373737" d="M0 0h805v805H0z" />
   <path fill="#202020"
      d="M118.502 194.664c9.383-.38 18.457-1.605 27.74-2.951 20.01 22.279 44.365 47.29 65.426 68.995 5.775 6.46 12.355 13.033 18.41 19.293q15.097.217 30.196.041c3.665-.013 13.894-.215 17.178.494 1.173-.795 52.295-1.075 55.283-.115 4.601-.68 17.964-.463 23.274-.373 9.732.166 21.827-.4 31.214.358 3.932-1.01 49.768-.768 55.166-.075 7.296-.65 46.24-1.132 52.356.166 1.634-.837 52.34-.931 55.3-.065 3.52-.616 15.607-.45 19.807-.404 10.968.122 22.708-.212 33.607.245 7.19-.7 50.146-1.127 55.32.125 4.76-.758 22.685-.329 28.32-.298-.928 30.147-.189 64.002-.19 94.352l.013 177.03.015 68.06c.002 12.05.258 24.207-.385 36.26-.453 8.493-7.101 17.356-15.436 19.667-3.391.939-8.607 1.381-12.136 1.384-36.536.033-73.073-.013-109.61-.013l-221.39.005-125.447.022-38.932.007c-11.764.001-29.55 2.069-38.309-6.73a22.86 22.86 0 0 1-6.52-13.872c-.671-6.325-.432-13.958-.42-20.437l.052-31.07.007-103.09q-1.063-153.506.09-307.01" />
   <path fill="#fefefe"
      d="M387.223 280.406c3.932-1.01 49.768-.768 55.166-.075-19.198 25.02-39.348 51.093-57.972 76.458-18.329.198-36.869.033-55.213.005 2.997-4.302 6.319-8.737 9.545-12.866 16.343-20.92 31.847-42.855 48.474-63.522m107.522.091c1.634-.837 52.34-.931 55.3-.065l-37.619 49.623c-6.514 8.59-13.735 18.561-20.543 26.793l-54.821-.039c6.034-8.866 14.442-19.398 21.052-28.103zm108.714-.225c7.19-.7 50.146-1.126 55.32.126-6.363 7.793-13.275 17.365-19.424 25.47l-38.711 50.964-55.109-.027c18.694-25.59 38.857-51.095 57.924-76.533m-326.007.264c1.173-.795 52.295-1.075 55.283-.115-14.24 17.93-32.105 41.5-45.409 59.969l-30.778-32.506c6.476-8.93 14.097-18.64 20.904-27.348" />
   <path fill="#b0afae"
      d="M166.704 570.963c7.021-.932 32.823-.357 41.315-.347h84.272l262.404-.005 53.84-.002c7-.001 15.174-.385 22.16.314 2.75.275 3.251 2.983 2.239 5.385-3.976 3.374-13.618 2.09-18.888 2.06l-22.374.029-78.517.017-19.358-.068c-.558 18.478.71 37.234-.587 55.617-.18 2.549-3.968 2.814-6.011 1.865-2.398-2.815-1.512-15.678-1.505-19.814l.059-37.623-170.796-.067c-.3 8.353.876 52.4-1.14 56.64-1.604 1.283-1.498 1.298-3.486 1.623-1.997-.719-3.256-1.185-3.369-3.706-.245-5.427-.13-10.938-.141-16.38q-.11-19.063.147-38.126c-14.54.11-137.303 1.005-140.169-.82-.989-.63-1.598-1.42-1.732-2.61-.186-1.646.684-2.766 1.637-3.982m3.23-117.147c11.9-.473 26.043-.112 38.113-.112l72.096-.002 217.66.004 96.501.004c9.985 0 19.98-.003 29.966-.028 3.346-.009 7.22-.388 9.167 2.862.18 3.947-1.782 4.56-5.02 5.115-13.384.427-27.905.165-41.402.165l-72.982-.003H293.638l-87.625-.002c-11.282 0-22.585.024-33.868-.012-2.58-.008-5.77-.365-7.156-2.811-.173-1.93-.097-1.86.772-3.493 1.62-1.355 2.005-1.282 4.173-1.687m-2.4 40.244c23.408-1.06 52.85-.222 76.843-.222l146.656-.003 160.433.003 56.328.04c5.538.022 21.04-1.276 24.776 1.698 1.809 3.146.41 4.457-2.004 6.028-20.535.92-46.63.227-67.614.223l-125.365-.006-177.156-.003c-28.618 0-57.306-.028-85.926.059-2.23.006-6.675-.387-8.54-1.65-1.296-.879-1.18-1.448-1.278-2.62 1.016-2.026 1.073-2.082 2.847-3.546m.196-80.111c22.74-.982 50.646-.198 73.846-.198l139.727-.001 166.689.001 59.17.04c5.739.02 21.347-1.223 25.274 1.592 1.64 3.106 1.031 4.393-1.874 6.127-18.55.864-43.7.124-62.793.123l-122.233-.005-183.831-.007c-28.944 0-57.957-.066-86.903.098-2.396.014-7.025-.332-8.974-1.764-1.254-.922-1.028-1.553-1.036-2.72.868-1.854 1.25-1.98 2.938-3.287m62.612-101.453a11.051 11.051 0 1 1 5.325 21.447 11.051 11.051 0 0 1-5.325-21.447m-87.956.037a11.026 11.026 0 1 1 5.005 21.476 11.023 11.023 0 0 1-13.113-8.265 11.023 11.023 0 0 1 8.108-13.21m.63-87.929a11.023 11.023 0 1 1 4.01 21.678 11.023 11.023 0 0 1-4.01-21.678" />
   <path fill="#fff" d="m146.87 192.958 526.47-64.116 9.171 74.277-470.84 56.643z" />
   <path fill="#202020"
      d="M607.094 213.079a5022 5022 0 0 1-41.428-42.277c-7.896-8.099-18.155-18.093-25.457-26.438-16.966 1.424-36.87 4.37-54.04 6.495l43.958 44.989c6.976 7.174 16.273 16.306 22.62 23.58 16.342-1.31 37.872-4.145 54.347-6.35m68.513-85.785c-18.184 2.722-39.047 4.464-57.263 6.918-4.286.577-19.482 2.055-22.898 3.304l66.533 69.46c6.81-.676 16.423-2.09 23.207-2.987-3.47-23.673-6.699-52.544-9.58-76.695M282.873 252.096c-4.837-5.996-16.7-17.545-22.441-23.435l-44.059-45.155c-5.604.372-50.284 5.196-52.97 6.428 21.995 22.515 44.239 46.182 66.393 68.324 4.706.46 27.083-3.4 33.013-3.719 1.765-.095 18.583-2.092 20.064-2.443M391.494 238.9c-15.023-16.62-32.484-32.994-47.888-49.37-6.03-6.413-12.569-12.498-18.385-19.144a2135 2135 0 0 0-35.118 3.982c-4.07.468-16.143 1.597-19.608 2.545l40.124 41.261c8.16 8.437 17.91 19.109 26.264 27.066 2.196.322 52.248-5.593 54.611-6.34m107.171-13.042c-4.596-5.261-11.152-11.679-16.09-16.757l-31.658-32.392c-4.843-4.955-14.646-14.523-18.397-19.591-6.92 1.24-50.656 5.344-53.025 7.154l42.988 44.03c7.236 7.466 16.014 17.058 23.435 24.096 5.6-.35 49.85-5.404 52.747-6.54" />
</svg>