<?xml version="1.0" encoding="UTF-8" standalone="no"?>
<svg
   width="221.75"
   height="246.86301"
   viewBox="0 0 221.75 246.86301"
   version="1.1"
   id="svg8"
   sodipodi:docname="ab11-logo-dot-dark.svg"
   inkscape:version="1.4 (86a8ad7, 2024-10-11)"
   xmlns:inkscape="http://www.inkscape.org/namespaces/inkscape"
   xmlns:sodipodi="http://sodipodi.sourceforge.net/DTD/sodipodi-0.dtd"
   xmlns="http://www.w3.org/2000/svg"
   xmlns:svg="http://www.w3.org/2000/svg">
  <defs
     id="defs8">
    <inkscape:path-effect
       effect="fillet_chamfer"
       id="path-effect15"
       is_visible="true"
       lpeversion="1"
       nodesatellites_param="F,0,0,1,0,1.6272157,0,1 @ F,0,0,1,0,1.2157411,0,1 @ F,0,0,1,0,0,0,1 @ F,0,0,1,0,2.1617555,0,1 @ F,0,0,1,0,1.8448674,0,1 @ F,0,0,1,0,1.1437503,0,1 @ F,0,0,1,0,0,0,1 @ F,0,0,1,0,0,0,1 @ F,0,0,1,0,0,0,1 @ F,0,0,1,0,0,0,1 @ F,0,0,1,0,0,0,1 @ F,0,0,1,0,0,0,1 @ F,0,0,1,0,0,0,1 @ F,0,0,1,0,0,0,1 @ F,0,0,1,0,0,0,1 @ F,0,0,1,0,0,0,1 @ F,0,0,1,0,0,0,1 @ F,0,0,1,0,0,0,1 @ F,0,0,1,0,0,0,1 @ F,0,0,1,0,0,0,1 @ F,0,0,1,0,0,0,1 @ F,0,0,1,0,0,0,1 @ F,0,0,1,0,0,0,1 @ F,0,0,1,0,2.5079568,0,1 @ F,0,0,1,0,1.5695511,0,1 @ F,0,0,1,0,0,0,1 @ F,0,0,1,0,0,0,1 @ F,0,0,1,0,0,0,1 @ F,0,0,1,0,0,0,1 @ F,0,0,1,0,1.2157411,0,1 | F,0,0,1,0,0,0,1 @ F,0,0,1,0,0,0,1 @ F,0,0,1,0,0,0,1 @ F,0,0,1,0,0,0,1 @ F,0,0,1,0,1.5144789,0,1 @ F,0,0,1,0,1.8286898,0,1 @ F,0,0,1,0,0,0,1 @ F,0,0,1,0,0,0,1 @ F,0,0,1,0,0,0,1 @ F,0,0,1,0,0,0,1 @ F,0,0,1,0,0,0,1 @ F,0,0,1,0,0,0,1 @ F,0,0,1,0,0,0,1 @ F,0,0,1,0,0,0,1 @ F,0,0,1,0,0,0,1 @ F,0,0,1,0,0,0,1 | F,0,0,1,0,0.78450394,0,1 @ F,0,0,1,0,0,0,1 @ F,0,0,1,0,0,0,1 | F,0,0,1,0,0,0,1 @ F,0,0,1,0,0,0,1 @ F,0,0,1,0,0,0,1 @ F,0,0,1,0,0,0,1 @ F,0,0,1,0,0.8018494,0,1 @ F,0,0,1,0,0,0,1 @ F,0,0,1,0,2.0889846,0,1 @ F,0,0,1,0,1.3814296,0,1 @ F,0,0,1,0,0,0,1 @ F,0,0,1,0,0,0,1"
       radius="0"
       unit="px"
       method="auto"
       mode="F"
       chamfer_steps="1"
       flexible="false"
       use_knot_distance="true"
       apply_no_radius="true"
       apply_with_radius="true"
       only_selected="false"
       hide_knots="false" />
    <inkscape:path-effect
       effect="fillet_chamfer"
       id="path-effect13"
       is_visible="true"
       lpeversion="1"
       nodesatellites_param="F,0,0,1,0,0,0,1 @ F,0,0,1,0,0,0,1 @ F,0,0,1,0,0,0,1 @ F,0,0,1,0,0,0,1 @ F,0,0,1,0,0,0,1 @ F,0,0,1,0,0,0,1 @ F,0,0,1,0,0,0,1 @ F,0,0,1,0,0,0,1 @ F,0,0,1,0,0,0,1 @ F,0,0,1,0,0,0,1 @ F,0,0,1,0,0,0,1 @ F,0,0,1,0,0,0,1 @ F,0,0,1,0,0,0,1 @ F,0,0,1,0,0,0,1 @ F,0,0,1,0,0,0,1 @ F,0,0,1,0,0,0,1 @ F,0,0,1,0,1.7683681,0,1 @ F,0,0,1,0,1.4770825,0,1 @ F,0,0,1,0,0,0,1 @ F,0,0,1,0,0,0,1 @ F,0,0,1,0,0,0,1 @ F,0,0,1,0,0,0,1 @ F,0,0,1,0,0,0,1 @ F,0,0,1,0,0,0,1 @ F,0,0,1,0,0,0,1 @ F,0,0,1,0,0,0,1 @ F,0,0,1,0,0,0,1 @ F,0,0,1,0,0,0,1 @ F,0,0,1,0,0,0,1 | F,0,0,1,0,0,0,1 @ F,0,0,1,0,0,0,1 @ F,0,0,1,0,0,0,1 @ F,0,0,1,0,0,0,1 @ F,0,0,1,0,0,0,1 @ F,0,0,1,0,0,0,1 @ F,0,0,1,0,0,0,1 @ F,0,0,1,0,1.8952556,0,1 @ F,0,0,1,0,1.792846,0,1 @ F,0,0,1,0,0,0,1 @ F,0,0,1,0,0,0,1 @ F,0,0,1,0,0,0,1 @ F,0,0,1,0,0,0,1 @ F,0,0,1,0,0,0,1 | F,0,0,1,0,0,0,1 @ F,0,0,1,0,0,0,1 @ F,0,0,1,0,0,0,1 | F,0,0,1,0,0,0,1 @ F,0,0,1,0,0,0,1 @ F,0,0,1,0,0,0,1 @ F,0,0,1,0,0,0,1 @ F,0,0,1,0,0,0,1 @ F,0,0,1,0,0,0,1 @ F,0,0,1,0,0,0,1 @ F,0,0,1,0,0,0,1 @ F,0,0,1,0,0,0,1 @ F,0,0,1,0,0,0,1"
       radius="0"
       unit="px"
       method="auto"
       mode="F"
       chamfer_steps="1"
       flexible="false"
       use_knot_distance="true"
       apply_no_radius="true"
       apply_with_radius="true"
       only_selected="false"
       hide_knots="false" />
  </defs>
  <sodipodi:namedview
     id="namedview8"
     pagecolor="#505050"
     bordercolor="#eeeeee"
     borderopacity="1"
     inkscape:showpageshadow="0"
     inkscape:pageopacity="0"
     inkscape:pagecheckerboard="0"
     inkscape:deskcolor="#505050"
     inkscape:zoom="2.8284271"
     inkscape:cx="67.528698"
     inkscape:cy="129.57732"
     inkscape:window-width="1920"
     inkscape:window-height="1051"
     inkscape:window-x="-9"
     inkscape:window-y="-9"
     inkscape:window-maximized="1"
     inkscape:current-layer="svg8" />
  <path
     d="M 103.73242,0.00390625 C 103.42411,0.01449301 103.1178,0.02558901 102.81055,0.03710937 100.34826,0.12943263 97.259503,1.9472279 96.349609,4.2226562 90.289853,19.376672 74.71054,72.753634 72.703125,81.5 56.548734,85.808221 34.102107,97.48766 20.259766,109.99414 c -3.249695,2.93608 -4.803991,9.17721 -2.716797,13.01953 4.129589,7.60217 10.137775,9.46648 15.662109,8.92383 3.708275,-0.36426 5.710723,-4.82925 3.175781,-7.55078 -1.566256,-1.68155 -3.208762,-2.28045 -5.18164,-3.26367 -2.07085,-1.03205 -2.096713,-3.35968 -0.25,-4.76172 12.876048,-9.7756 21.17488,-13.72075 37.158203,-19.898439 -7.016746,23.610059 -10.068415,32.500769 -14.292969,47.800779 -10.859551,0.32612 -37.668255,0.0256 -47.4042968,2.77735 -1.4416714,0.40747 -3.3820385,1.88159 -4.2031249,3.13867 -1.26953978,1.94366 -2.26607211,4.34959 -2.20117192,6.27539 0.54129781,16.09195 50.02662262,68.38734 66.24999962,83.9414 0.953173,0.91385 2.505188,2.39516 3.5625,3.18555 1.018668,0.7615 2.070059,1.36916 3.242188,1.8125 1.362945,0.51552 3.742235,0.38233 4.886719,-0.49023 0.828128,-0.63137 1.777686,-2.39075 2.101562,-3.92578 5.456857,-25.86322 7.510236,-62.07222 11.853516,-86.73243 6.50513,-0.52123 13.762796,-1.25504 20.224606,-1.29101 -1.65142,10.98002 -3.6485,21.90772 -5.98047,32.76367 -1.4261,7.70209 -5.62123,27.56976 -7.519527,38.58398 -0.60746,3.52461 1.955267,6.64431 5.535157,6.83399 0.43395,0.0231 0.87265,0.0388 1.30469,0.0566 2.98764,0.1233 5.84948,-2.3896 6.39453,-5.33399 2.58863,-13.98388 5.51105,-29.95262 8.26562,-43.90429 13.2584,-1.06633 28.27099,-1.80102 39.23633,7.11133 8.74717,7.10932 7.04397,18.17978 -0.006,25.79492 -2.14308,2.31509 -4.3249,4.17065 -6.57031,5.66406 -4.21942,2.80631 -5.56768,7.04343 -2.2168,10.86719 1.53118,1.74725 5.05822,1.95255 7.68555,0.16015 20.70617,-14.12598 35.60827,-43.65592 -3.77344,-59.89257 24.58787,-11.00719 53.84641,-24.11239 64.94531,-50.61524 8.88298,-21.217837 -9.24802,-41.887988 -28.45507,-48.212889 -27.56991,-9.078624 -60.94567,-3.570647 -89.22071,0.136719 1.33159,-21.211278 3.76251,-37.523265 6.20508,-58.378906 0.28594,-2.441456 0.74494,-6.4062902 1.03711,-8.8535159 0.39107,-3.2755496 -1.9649,-5.84562606 -5.26172,-5.73242185 z M 155.83203,81.957031 c 28.40724,0.280449 65.71747,6.479866 46.38281,42.521489 -10.41584,19.41738 -56.15728,38.69949 -78.42382,43.35351 1.85638,-8.69905 1.32435,-5.72066 2.89843,-15.66797 6.52701,-0.42711 19.12732,-1.79601 27.73828,-3.22461 3.02475,-0.50181 5.55025,-3.53354 5.55274,-6.60351 0.003,-3.38055 -3.01318,-6.16325 -6.71875,-6.0625 -7.84748,0.21335 -16.74535,0.84627 -23.90039,1.16015 1.22132,-6.13182 2.34887,-14.17814 3.47656,-20.41796 0.68326,-3.78066 -1.85809,-7.11307 -5.69922,-7.14844 -0.0886,-8.2e-4 -0.17698,-0.005 -0.26562,-0.006 -3.63368,-0.0257 -6.99726,2.97931 -7.69922,6.54492 -1.35943,6.90524 -3.36586,17.8375 -4.60938,23.51562 -7.11446,1.09533 -13.20544,1.55491 -20.337888,1.61915 2.521739,-16.79764 3.319201,-37.36413 6.314458,-53.839848 11.85877,-3.426554 21.05132,-3.970998 33.25,-4.998047 4.04207,-0.266563 9.86747,-0.631387 16.49609,-0.730469 1.79525,-0.02684 3.65111,-0.03432 5.54492,-0.01563 z m -71.472655,9.994141 c 0.669659,8.186878 -5.370408,45.845468 -5.291016,50.749998 -2.11119,0.8763 -7.723501,0.85367 -10.402343,0.89258 1.630228,-5.31631 11.162224,-42.42031 14.451171,-51.3125 z M 70.658203,155.73047 c 2.36078,0.005 4.734278,0.0243 6.847656,0.0137 -2.297235,21.17544 -3.88877,45.56937 -6.501953,67.11914 -0.302025,2.49067 -2.046085,3.10374 -3.792969,1.29492 -8.873536,-9.18815 -17.848496,-21.15201 -26.068359,-30.17383 -9.632317,-10.50435 -19.879195,-22.16852 -27.714844,-34.28125 -1.120627,-1.73231 -0.312691,-3.23075 1.75,-3.2871 11.044597,-0.30176 22.894004,-0.0795 33.736328,0.21679 l -1.65039,5.78125 c -1.162919,4.07209 1.324323,7.61145 5.558594,7.60156 0.57423,-0.001 1.150331,-0.007 1.736328,-0.0176 2.800243,-0.0514 5.728112,-2.35974 6.542968,-5.03907 l 2.775391,-9.1289 c 2.067495,-0.0918 4.420474,-0.10427 6.78125,-0.0996 z M 48.113281,171.6543 c -0.942268,0.0338 -1.894273,0.24612 -2.804687,0.65429 -2.540824,1.13937 -4.241752,3.59082 -4.423828,6.36914 -0.182064,2.77831 1.186132,5.42971 3.55664,6.89063 2.370141,1.46127 5.353299,1.49145 7.753906,0.0801 3.440501,-2.02253 4.699695,-6.38116 2.869141,-9.92774 -1.372915,-2.65995 -4.124367,-4.16775 -6.951172,-4.0664 z"
     style="baseline-shift:baseline;display:inline;overflow:visible;vector-effect:none;enable-background:accumulate;stop-color:#000000;stop-opacity:1;fill:#ffffff;fill-opacity:1"
     id="path2" />
  <path
     d="m 128.98828,93.013672 c -0.93741,-0.02534 -1.8961,0.131692 -2.82422,0.49414 -3.73159,1.457617 -5.56458,5.666128 -4.09375,9.392578 1.47083,3.72608 5.6908,5.54886 9.41211,4.06445 3.70222,-1.47671 5.50805,-5.66958 4.04492,-9.376949 -1.09762,-2.780794 -3.72683,-4.498698 -6.53906,-4.574219 z"
     style="stroke-width:3.67065;fill:#ffffff;fill-opacity:1"
     id="path4" />
  <path
     d="m 102.26172,233.33008 c 2.13152,0.0371 4.20825,1.08193 5.49023,2.97461 2.05115,3.0283 1.32417,7.13551 -1.64062,9.27734 -1.99904,1.4444 -4.62396,1.68543 -6.853518,0.63086 -2.229553,-1.05421 -3.712901,-3.23767 -3.865234,-5.69922 -0.151954,-2.46191 1.04972,-4.80822 3.132813,-6.1289 1.158324,-0.73437 2.457429,-1.07696 3.736329,-1.05469 z"
     style="stroke-width:3.67065;fill:#ffffff;fill-opacity:1"
     id="path3" />
</svg>
