<?xml version="1.0" encoding="UTF-8" standalone="no"?>
<svg
   version="1.0"
   width="342.63599pt"
   height="586.16998pt"
   viewBox="0 0 342.63599 586.16998"
   preserveAspectRatio="xMidYMid"
   id="svg1"
   sodipodi:docname="draft-2-vector.svg"
   inkscape:version="1.4 (86a8ad7, 2024-10-11)"
   xmlns:inkscape="http://www.inkscape.org/namespaces/inkscape"
   xmlns:sodipodi="http://sodipodi.sourceforge.net/DTD/sodipodi-0.dtd"
   xmlns="http://www.w3.org/2000/svg"
   xmlns:svg="http://www.w3.org/2000/svg">
  <defs
     id="defs1" />
  <sodipodi:namedview
     id="namedview1"
     pagecolor="#505050"
     bordercolor="#eeeeee"
     borderopacity="1"
     inkscape:showpageshadow="0"
     inkscape:pageopacity="0"
     inkscape:pagecheckerboard="0"
     inkscape:deskcolor="#505050"
     inkscape:document-units="pt"
     inkscape:zoom="1.06875"
     inkscape:cx="399.53216"
     inkscape:cy="400.93567"
     inkscape:window-width="1920"
     inkscape:window-height="1051"
     inkscape:window-x="-9"
     inkscape:window-y="-9"
     inkscape:window-maximized="1"
     inkscape:current-layer="g1" />
  <g
     transform="matrix(0.1412655,0,0,-0.1412655,-260.2823,721.78515)"
     fill="#000000"
     stroke="none"
     id="g1">
    <path
       d="m 2485,5093 c -83,-44 -160,-133 -223,-258 -25,-50 -41,-67 -95,-102 -185,-121 -280,-308 -280,-553 -1,-138 15,-244 54,-363 36,-111 39,-209 8,-277 -135,-294 -142,-558 -19,-734 l 40,-57 v -793 c 0,-860 -1,-849 55,-922 37,-49 92,-74 162,-74 137,1 236,101 283,285 32,124 40,297 40,826 0,275 2,499 4,499 2,0 36,-15 77,-34 180,-83 331,-112 538,-103 432,17 804,263 1004,662 134,269 172,619 97,909 -129,504 -568,822 -1176,852 -115,6 -217,-1 -344,-22 l -35,-6 3,84 c 4,98 -9,149 -45,177 -32,26 -104,27 -148,4 z m 132,-63 c 14,-27 18,-158 5,-175 -4,-6 -45,-11 -92,-11 -47,-1 -114,-9 -149,-18 -35,-9 -65,-15 -67,-13 -6,6 36,77 78,133 55,73 121,116 173,112 31,-2 42,-9 52,-28 z m 529,-241 c 144,-14 314,-58 433,-112 332,-149 538,-409 608,-766 22,-114 21,-326 -1,-451 -103,-576 -559,-970 -1124,-970 -166,0 -337,42 -492,120 l -60,30 v 64 c 0,80 8,87 80,74 77,-14 220,-5 323,22 l 88,22 90,-41 c 107,-50 295,-113 323,-109 13,2 21,10 21,21 0,15 -26,27 -132,62 -165,55 -184,64 -123,65 25,0 83,9 129,20 371,89 671,420 706,780 13,124 -37,273 -123,371 -22,25 -51,73 -65,106 -103,255 -328,378 -626,345 -87,-10 -183,-31 -313,-69 -15,-4 -18,1 -18,33 0,111 -39,241 -95,323 l -35,50 43,5 c 23,3 53,7 67,10 54,8 192,6 296,-5 z m -651,-35 c -84,-44 -152,-91 -222,-158 -29,-27 -53,-45 -53,-40 0,4 11,45 25,90 l 25,83 57,21 c 78,29 119,38 183,39 l 55,1 z m 217,-31 c 55,-59 90,-161 103,-295 l 7,-76 -118,-58 c -66,-32 -123,-60 -128,-62 -13,-7 1,89 45,308 21,107 39,198 39,202 0,17 28,7 52,-19 z m -143,-169 c -21,-103 -43,-227 -50,-276 l -12,-89 -84,-65 c -46,-36 -110,-90 -142,-120 -33,-30 -62,-51 -65,-46 -11,18 -26,181 -26,283 0,186 1,190 94,284 45,46 108,99 140,120 56,36 165,94 177,95 3,0 -11,-84 -32,-186 z m -395,31 c -13,-55 -24,-105 -24,-112 0,-6 -18,-41 -40,-76 -67,-106 -130,-312 -130,-423 0,-61 -17,-36 -29,41 -41,275 31,512 192,635 29,21 52,38 53,37 2,-1 -8,-47 -22,-102 z m 1311,-221 c 72,-25 144,-73 194,-130 38,-43 88,-124 77,-124 -2,0 -28,11 -59,25 -197,91 -477,70 -744,-55 l -83,-39 v 52 c 0,29 3,89 7,134 l 6,82 64,22 c 135,45 230,59 363,55 85,-3 141,-10 175,-22 z m -1330,-379 16,-95 -62,-84 c -35,-47 -66,-83 -71,-80 -11,7 -10,173 2,274 12,95 30,169 63,250 l 22,55 7,-112 c 4,-62 14,-156 23,-208 z m 665,238 c 0,-32 -3,-94 -7,-138 l -6,-80 -81,-57 c -45,-32 -106,-79 -136,-104 -53,-45 -55,-46 -58,-23 -4,24 15,263 24,311 4,22 24,36 125,87 66,34 124,61 129,61 6,0 10,-26 10,-57 z m 725,-98 c 54,-9 108,-28 165,-57 80,-41 85,-45 93,-83 11,-53 1,-215 -18,-287 -84,-313 -374,-632 -712,-783 l -62,-27 -98,65 c -54,36 -122,87 -152,114 l -55,49 32,130 c 41,168 86,415 107,583 9,74 18,138 21,143 11,17 148,80 247,113 161,54 288,66 432,40 z M 2481,3950 c -6,-65 -11,-139 -11,-165 0,-42 -6,-54 -62,-122 l -61,-75 -18,35 c -32,61 -79,186 -85,224 -5,36 -2,41 58,99 35,34 90,83 123,109 72,58 71,60 56,-105 z m 304,-146 c -30,-218 -91,-531 -119,-611 l -12,-36 -74,87 -73,87 6,187 6,187 58,54 c 65,61 213,174 220,168 2,-3 -3,-58 -12,-123 z m 1143,29 c 24,-52 27,-69 27,-173 0,-100 -4,-126 -28,-195 -106,-310 -416,-560 -732,-589 -66,-7 -69,-6 -50,9 11,9 38,26 60,37 84,43 230,154 319,242 200,198 320,441 341,689 6,73 8,77 21,58 8,-12 27,-47 42,-78 z m -1709,-88 c 12,-33 38,-94 57,-136 l 36,-76 -34,-68 -35,-68 -47,62 c -26,34 -65,91 -86,128 l -39,65 26,42 c 45,71 88,124 94,118 4,-4 16,-34 28,-67 z m 234,-281 -9,-49 -32,57 c -36,62 -36,61 12,123 l 31,39 3,-61 c 2,-33 -1,-82 -5,-109 z m -368,59 c 21,-32 59,-85 84,-118 l 46,-60 v -120 c 1,-102 4,-129 24,-178 29,-74 92,-152 156,-195 28,-19 52,-38 54,-44 6,-16 -39,-55 -87,-76 -101,-44 -209,-37 -296,18 l -46,30 v 384 c 0,211 3,391 6,400 10,26 19,19 59,-41 z m 314,-131 c 46,-71 51,-83 51,-135 0,-31 -3,-57 -8,-57 -13,0 -152,145 -152,158 0,13 48,112 54,112 2,0 27,-35 55,-78 z m -429,-254 c -1,-263 -2,-291 -16,-273 -52,69 -71,260 -39,409 15,74 42,156 51,156 2,0 4,-132 4,-292 z m 472,-8 c 4,0 8,-54 8,-120 0,-75 -4,-120 -10,-120 -25,0 -102,87 -133,149 -27,56 -33,78 -36,155 l -3,90 83,-77 c 45,-42 86,-77 91,-77 z m 195,-29 c 2,-3 -1,-13 -7,-21 -7,-12 -18,-8 -64,24 -55,38 -56,39 -56,88 v 49 l 63,-67 c 34,-36 63,-69 64,-73 z m -39,-90 c 4,-12 -38,-93 -68,-131 l -20,-25 v 108 108 l 42,-25 c 24,-14 44,-30 46,-35 z m 153,-7 c 11,-13 5,-13 -29,5 -23,12 -42,28 -42,37 0,13 5,12 28,-5 16,-11 35,-28 43,-37 z m 124,-129 40,-17 -30,-9 c -93,-27 -305,-33 -305,-9 0,4 16,37 36,72 l 36,66 92,-43 c 50,-24 109,-51 131,-60 z m -428,-841 c -3,-551 -7,-670 -20,-724 -40,-170 -102,-262 -192,-284 -116,-30 -183,23 -205,162 -6,32 -10,379 -10,786 0,689 1,728 18,723 9,-4 44,-16 77,-28 79,-28 188,-23 267,14 29,13 57,21 61,17 5,-4 7,-304 4,-666 z"
       id="path1"
       style="fill:#ffffff;fill-opacity:1;stroke-width:49.13443128;stroke-dasharray:none;stroke:#ffffff;stroke-opacity:1" />
  </g>
</svg>
