<?xml version="1.0" encoding="UTF-8" standalone="no"?>
<svg
   version="1.0"
   width="315.461pt"
   height="595.87097pt"
   viewBox="0 0 315.461 595.87097"
   preserveAspectRatio="xMidYMid"
   id="svg1"
   sodipodi:docname="draft-1-vector.svg"
   inkscape:version="1.4 (86a8ad7, 2024-10-11)"
   xmlns:inkscape="http://www.inkscape.org/namespaces/inkscape"
   xmlns:sodipodi="http://sodipodi.sourceforge.net/DTD/sodipodi-0.dtd"
   xmlns="http://www.w3.org/2000/svg"
   xmlns:svg="http://www.w3.org/2000/svg">
  <defs
     id="defs1" />
  <sodipodi:namedview
     id="namedview1"
     pagecolor="#505050"
     bordercolor="#eeeeee"
     borderopacity="1"
     inkscape:showpageshadow="0"
     inkscape:pageopacity="0"
     inkscape:pagecheckerboard="0"
     inkscape:deskcolor="#505050"
     inkscape:document-units="pt"
     inkscape:zoom="0.75572037"
     inkscape:cx="382.41658"
     inkscape:cy="437.33107"
     inkscape:window-width="1920"
     inkscape:window-height="1051"
     inkscape:window-x="-9"
     inkscape:window-y="-9"
     inkscape:window-maximized="1"
     inkscape:current-layer="svg1" />
  <g
     transform="matrix(0.15077607,0,0,-0.15077607,-294.58686,750.22402)"
     fill="#000000"
     stroke="none"
     id="g1"
     style="fill:#ffffff;fill-opacity:1;stroke:#ffffff;stroke-width:54.7235;stroke-dasharray:none;stroke-opacity:1">
    <path
       d="m 2665,4940 c -33,-5 -91,-16 -130,-25 -38,-9 -113,-18 -165,-18 -88,-2 -100,-5 -158,-36 -79,-43 -154,-124 -181,-196 -43,-116 -53,-285 -25,-460 20,-130 19,-565 -2,-779 -9,-90 -18,-311 -21,-548 -7,-469 5,-691 52,-1038 8,-58 21,-161 30,-230 26,-220 81,-382 161,-470 99,-109 260,-120 345,-22 136,154 182,486 183,1300 l 1,473 25,-5 c 14,-3 76,-11 137,-17 175,-19 359,4 523,66 266,101 462,326 539,618 35,133 44,238 38,442 -6,222 -22,298 -89,428 -53,103 -186,241 -301,311 -151,94 -412,181 -617,206 -96,11 -256,11 -345,0 z m 320,-30 c 111,-13 315,-62 413,-101 317,-126 496,-305 563,-564 30,-117 37,-380 15,-534 -37,-252 -123,-430 -274,-573 -118,-111 -264,-184 -448,-223 -99,-21 -309,-24 -421,-6 l -83,13 v 113 113 l 61,15 c 57,14 63,14 103,-4 175,-77 363,-57 519,54 250,179 354,499 256,789 -10,32 -19,68 -19,80 -1,56 -33,170 -69,243 -90,181 -258,305 -473,349 -86,18 -262,21 -351,6 l -57,-9 -41,44 c -22,24 -53,46 -68,50 -16,3 -34,17 -42,31 -7,14 -26,37 -42,50 l -28,24 26,10 c 39,15 217,38 300,39 39,0 111,-4 160,-9 z m -665,-71 c -30,-16 -72,-46 -92,-66 -76,-74 -142,-241 -173,-433 -9,-57 -17,-106 -19,-107 -10,-10 -14,186 -6,258 24,208 107,319 272,363 77,21 79,19 18,-15 z m 192,-27 c 31,-28 28,-42 -8,-42 -62,0 -164,-86 -228,-194 -73,-122 -141,-328 -196,-596 -33,-156 -37,-134 -20,110 12,171 33,304 66,418 49,170 111,252 238,313 86,42 94,41 148,-9 z m 72,-112 c 9,-22 16,-46 15,-53 0,-6 -27,-25 -61,-42 -152,-74 -258,-251 -258,-431 0,-51 -6,-75 -35,-131 -125,-247 -90,-603 86,-860 16,-23 29,-44 29,-47 0,-3 -20,-6 -44,-6 -60,0 -92,-14 -109,-47 -51,-99 -25,-247 142,-814 120,-406 131,-453 131,-546 0,-97 13,-193 41,-304 25,-96 21,-138 -14,-190 -29,-44 -86,-64 -151,-55 -108,17 -187,163 -258,481 -22,98 -22,115 -24,765 -1,366 -7,774 -13,908 -9,202 -8,261 4,354 56,423 145,735 259,907 69,103 133,149 207,150 34,1 38,-2 53,-39 z m 81,-12 c 14,-21 14,-23 -2,-30 -28,-11 -30,-9 -37,16 -3,13 -9,32 -12,41 -6,15 -4,16 14,6 12,-6 28,-21 37,-33 z m 490,-52 c 226,-60 397,-222 459,-435 9,-30 14,-52 12,-50 -2,2 -25,32 -50,66 -125,170 -333,273 -550,273 -81,0 -191,-16 -238,-35 -13,-5 -18,1 -23,32 -4,21 -13,63 -20,93 -7,30 -11,57 -9,60 24,23 326,20 419,-4 z m -444,-48 c 6,-24 15,-67 19,-96 6,-49 5,-55 -14,-62 -12,-4 -22,-6 -24,-5 -2,2 -12,45 -23,96 -15,73 -17,94 -7,101 26,16 37,7 49,-34 z m -78,-55 c 31,-142 33,-127 -15,-149 -73,-33 -189,-113 -250,-174 l -58,-58 v 31 c 0,51 28,153 56,209 44,86 184,207 241,208 6,0 18,-30 26,-67 z m 525,-89 c 127,-26 231,-82 326,-177 45,-45 98,-111 119,-147 38,-64 38,-67 32,-138 -27,-320 -286,-604 -676,-740 l -86,-31 -60,40 -60,39 -7,267 c -6,210 -4,303 8,427 9,88 16,221 16,296 v 137 l 43,12 c 117,33 233,38 345,15 z m -419,-176 c -1,-73 -5,-144 -9,-158 -7,-22 -8,-20 -9,15 -1,22 -6,89 -13,148 -10,92 -9,110 3,118 8,5 17,9 22,9 4,0 7,-60 6,-132 z m -60,-30 c 7,-68 16,-186 20,-263 8,-139 2,-206 -45,-538 l -7,-48 -28,27 c -78,75 -198,273 -249,411 -25,69 -60,220 -60,257 0,22 110,135 176,182 75,53 165,104 175,99 3,-3 12,-60 18,-127 z m -389,-232 c 0,-43 50,-199 91,-286 57,-121 103,-191 186,-292 l 74,-88 -15,-91 c -8,-50 -16,-92 -18,-94 -2,-1 -46,-7 -98,-13 -113,-11 -107,-15 -178,104 -136,226 -169,511 -85,721 26,65 43,81 43,39 z m 1399,-148 c 7,-52 7,-102 1,-156 -20,-160 -74,-267 -195,-389 -130,-131 -271,-185 -427,-163 -62,9 -138,33 -138,43 0,2 28,15 63,27 201,73 393,204 507,348 65,82 136,228 152,314 7,37 16,64 19,60 4,-4 12,-42 18,-84 z m -975,-410 c 6,-116 2,-134 -24,-103 -10,13 -10,36 0,120 7,58 14,104 15,103 1,-2 5,-56 9,-120 z m -12,-155 c 13,-11 18,-30 18,-64 0,-52 -1,-53 -44,-63 l -28,-7 6,58 c 12,98 16,105 48,76 z m -665,-653 c 0,-538 -12,-572 -23,-65 -7,338 4,770 17,625 3,-41 6,-293 6,-560 z m 774,564 c 0,-5 -14,-12 -31,-15 -29,-6 -30,-5 -30,28 v 35 l 31,-20 c 17,-10 31,-23 30,-28 z m -91,-164 c 0,-110 2,-107 -64,-89 l -38,11 6,51 c 13,104 17,116 40,120 58,12 56,15 56,-93 z m -123,13 c -5,-38 -11,-70 -13,-71 -5,-6 -88,54 -118,87 -37,38 -35,39 115,49 l 25,2 z m -168,5 c 21,-24 64,-59 95,-78 54,-33 56,-37 52,-70 -57,-407 -81,-629 -94,-835 l -7,-120 -54,185 c -30,102 -76,259 -103,350 -63,214 -98,388 -98,484 0,68 3,80 25,101 20,21 34,25 84,25 58,0 62,-2 100,-42 z m 251,-148 42,-11 -5,-562 c -3,-433 -8,-592 -20,-694 -17,-131 -50,-303 -69,-352 l -10,-26 -18,35 c -11,20 -19,56 -20,85 -1,75 -26,249 -51,356 -20,85 -21,110 -16,269 7,180 23,350 57,620 34,259 41,302 56,296 7,-3 31,-10 54,-16 z M 2527,1573 c -4,-3 -7,0 -7,7 0,7 3,10 7,7 3,-4 3,-10 0,-14 z m -270,-386 c 54,-51 147,-61 221,-26 35,17 49,32 67,71 l 23,50 18,-26 c 21,-33 12,-56 -42,-115 -102,-113 -265,-62 -355,111 -28,55 -23,58 10,7 15,-24 42,-56 58,-72 z"
       id="path1"
       style="fill:#ffffff;fill-opacity:1;stroke:#ffffff;stroke-width:54.7235;stroke-dasharray:none;stroke-opacity:1" />
  </g>
</svg>
