<?xml version="1.0" encoding="UTF-8" standalone="no"?>
<svg
   width="425.815"
   height="463.68201"
   viewBox="0 0 425.815 463.68201"
   version="1.1"
   id="svg6"
   sodipodi:docname="feather-svg-feathers-clipart_1002436-4.svg"
   inkscape:version="1.4 (86a8ad7, 2024-10-11)"
   xml:space="preserve"
   xmlns:inkscape="http://www.inkscape.org/namespaces/inkscape"
   xmlns:sodipodi="http://sodipodi.sourceforge.net/DTD/sodipodi-0.dtd"
   xmlns="http://www.w3.org/2000/svg"
   xmlns:svg="http://www.w3.org/2000/svg"><defs
     id="defs6" /><sodipodi:namedview
     id="namedview6"
     pagecolor="#505050"
     bordercolor="#eeeeee"
     borderopacity="1"
     inkscape:showpageshadow="0"
     inkscape:pageopacity="0"
     inkscape:pagecheckerboard="0"
     inkscape:deskcolor="#505050"
     inkscape:zoom="0.94092644"
     inkscape:cx="13.81617"
     inkscape:cy="249.22246"
     inkscape:window-width="1920"
     inkscape:window-height="1051"
     inkscape:window-x="-9"
     inkscape:window-y="-9"
     inkscape:window-maximized="1"
     inkscape:current-layer="svg6" /><path
     d="M 425.815,0 C 373.75532,8.4818343 345.60366,48.765541 343.48334,99.733394 337.707,81.390598 339.51908,61.495793 348.5154,44.496006 353.55,35.01153 360.01629,26.218218 368.13163,19.145833 c -26.6338,13.240696 -52.80873,40.406402 -62.39381,68.916902 -0.27554,0.821344 -0.53347,1.648315 -0.77502,2.481224 -23.32908,6.488213 -43.74877,23.181101 -55.31138,44.286621 -11.44924,20.8983 -13.738,41.12261 -13.35195,64.34127 -1.02979,-3.6726 -2.00184,-8.35093 -3.13339,-11.84674 -3.84931,-11.89588 -10.02155,-25.84349 -21.43603,-32.2529 -4.016,-2.25432 -6.81707,-2.73665 -11.17378,-3.36642 5.24978,5.20122 12.70296,15.42669 12.71553,23.04089 -3.4e-4,0.53664 -0.0152,1.07322 -0.0437,1.60896 -5.40933,-7.42014 -10.01103,-10.61514 -19.28065,-9.31773 14.05001,14.71877 7.04624,43.81251 2.11269,60.94104 -2.44825,-16.14085 -9.82563,-27.75463 -24.77819,-34.56908 11.7461,19.50696 4.27404,37.56066 -4.28179,56.29264 -3.23065,6.9143 -6.27112,13.91671 -9.11433,20.99859 -3.47362,8.82475 -5.51884,14.69859 -4.68373,24.26449 -2.24043,-5.33765 -3.4049,-10.47073 -3.29575,-16.30639 0.0738,-2.96647 0.35587,-5.92586 0.84567,-8.85279 0.74752,-4.42414 6.84683,-26.95123 0.12393,-32.01775 -0.0913,-0.027 -0.1809,-0.0562 -0.27218,-0.0832 -1.48426,1.30844 -1.18406,6.04026 -2.4052,9.03009 -1.46016,3.57529 -1.77344,3.89533 -3.51979,6.9262 -3.90153,6.7714 -11.17196,10.43721 -15.38283,16.18705 -13.64522,18.63186 -20.01766,46.13097 -21.43802,68.58544 -0.3407,5.35437 -0.42631,10.72078 -0.25795,16.08289 0.14131,3.63496 0.56572,7.91446 0.56075,11.46499 -5.52682,-16.68504 -9.580594,-38.48928 -0.12395,-54.50468 -10.897731,8.73493 -9.184953,20.53512 -8.895353,32.90185 0.237597,10.16258 -1.366905,20.79221 -5.306744,30.2078 -2.097823,-7.75884 -2.778688,-19.99942 2.386162,-26.62626 -8.913564,6.56633 -8.035371,15.9149 -6.681789,25.66468 -3.482337,-8.23316 -4.398112,-10.21532 -12.217626,-14.54697 7.144618,10.76599 8.858798,22.19743 3.842917,34.28833 -3.752897,1.01885 -7.574008,1.76981 -11.43332,2.24836 -5.801288,1.06849 -11.026584,1.49044 -16.856446,2.03144 -4.184914,0.38908 -11.957583,-0.31759 -14.458259,3.25306 -0.986536,1.39139 -1.352974,3.12827 -1.013884,4.8002 0.313652,1.59517 1.254371,3.10808 2.627186,4.00161 4.566556,2.9714 33.139972,-2.38821 39.174768,-3.76009 2.373005,-0.53995 4.879817,-1.1384 7.139228,-2.04569 1.020018,2.30268 2.294494,3.84514 3.885636,5.77217 4.305631,5.2138 6.448474,9.85791 6.868659,16.67714 2.475604,-8.25221 0.898754,-13.29146 -2.679928,-20.90042 8.541543,5.46238 16.269013,12.04936 18.780833,22.50026 0.82734,3.44187 0.74068,7.44668 1.43973,10.98906 2.03283,10.31018 9.15957,18.54401 17.83543,24.08698 0.35234,0.22463 0.70856,0.44459 1.067,0.66122 -7.0459,-6.69681 -13.53185,-17.36654 -13.9415,-27.14547 -0.6213,-14.80477 -4.08112,-21.04541 -13.57648,-32.23624 3.46132,2.34177 6.47234,4.89173 9.83279,7.29927 6.64094,4.75982 12.42971,7.9524 20.07507,10.69165 -8.26639,-7.59733 -15.85659,-15.65073 -24.29542,-23.28991 5.53693,1.31511 14.39239,4.82615 19.69582,7.22232 11.31158,5.11005 20.17877,10.5323 32.86246,5.47758 -12.42443,-0.58724 -30.81714,-7.26661 -37.97067,-17.97935 7.17408,-4.49569 16.3359,-2.04893 24.44466,-1.29669 4.41225,0.3939 8.8446,0.52138 13.27209,0.38076 10.47545,-0.40949 20.84626,-2.26468 30.81538,-5.51252 8.98706,-2.97205 17.42509,-7.40038 24.9759,-13.11072 13.48992,-10.33068 24.90831,-24.81364 38.71692,-34.79484 2.35892,-1.7046 5.49294,-2.36344 8.36744,-2.65245 -11.95588,-1.4621 -17.07006,2.39217 -27.83838,5.16882 -16.63347,4.28857 -36.99299,4.68309 -53.74993,0.93417 9.46154,-3.61296 19.10286,-7.17954 29.21629,-8.58557 4.6175,-0.64237 11.55603,-0.60168 16.39781,-0.85769 17.67459,-0.93317 25.01176,-4.03561 38.97534,-13.73316 -15.30785,6.50975 -26.18377,11.19948 -43.36731,10.22266 34.35152,-13.87388 68.70329,-35.97113 83.72843,-71.43426 1.74364,-4.1744 3.2114,-8.45753 4.39466,-12.82407 0.69486,-2.66049 2.16685,-10.68272 3.33748,-12.39392 2.54193,-3.71317 5.82145,-8.12932 8.4581,-11.90264 l 13.57824,-19.60726 c 7.41907,-10.63161 17.47874,-24.72312 21.56324,-36.98975 4.48186,-13.80803 4.20963,-28.61168 4.97478,-42.91274 1.49342,-27.901256 7.25963,-56.457084 20.04276,-81.455993 7.7759,-15.206438 19.12677,-28.950803 34.06891,-37.4745801 1.1464,-0.6542038 4.7173,-2.031338 5.21905,-2.889550921593 z"
     id="path27"
     style="fill:#ffffff;fill-opacity:1;stroke-width:0.99953" /><g
     transform="matrix(-0.00181613,-0.01670804,-0.01670804,0.00181613,119.33246,482.98755)"
     fill="#003932"
     stroke="none"
     id="g5"
     style="fill:#ffffff;fill-opacity:1"><path
       d="m 5072.7334,6490.6915 c -157.2133,-485.8559 -214.9139,-651.4316 -343.695,-988.4367 -117.91,-308.5729 -194.0079,-554.4277 -260.0709,-842.0945 l -30.941,-135.471 59.3731,-62.7181 c 102.0214,-107.8751 204.8791,-276.7957 242.5099,-399.7231 10.0349,-30.941 22.5785,-88.6416 27.5959,-127.9449 l 10.0349,-71.0805 h 136.3073 136.3073 l 2.5087,239.1649 2.5087,240.0011 -31.7772,20.0698 c -35.9583,22.5785 -76.9341,82.7879 -90.314,132.1261 -15.0523,55.1919 2.5088,127.9448 44.3208,180.628 16.7248,20.906 74.4254,57.7006 90.314,57.7006 22.5785,0 25.0872,71.0805 25.0872,852.1295 0,407.2493 4.1812,784.3939 8.3624,861.3281 5.0175,75.2616 7.5262,137.9797 5.8537,139.6522 -1.6724,1.6725 -17.561,-40.9758 -34.2858,-95.3315 z"
       id="path1"
       style="fill:#ffffff;fill-opacity:1;stroke-width:0.836241" /><path
       d="m 5163.0474,6529.1586 c 2.5087,-29.2684 6.6899,-81.1154 9.1986,-115.4012 2.5087,-34.2859 4.1812,-412.2668 4.1812,-840.4221 0.8363,-427.3191 3.345,-791.9201 5.8537,-808.6449 3.345,-22.5785 9.1987,-31.7772 22.5785,-35.1221 37.6309,-9.1987 86.1328,-53.5194 108.7113,-97.8402 47.6658,-95.3315 16.7248,-214.0777 -70.2442,-266.7608 l -32.6134,-20.9061 -0.8362,-201.534 c 0,-111.2201 2.5087,-219.0951 5.0174,-240.8374 l 5.8537,-38.4671 h 137.1435 c 75.2617,0 135.471,2.5088 133.7985,6.69 -5.8537,8.3624 15.0524,133.7985 31.7772,191.4991 34.2859,116.2375 142.1609,295.193 245.0186,404.7406 l 61.0455,64.3905 -13.3798,49.3383 c -6.6899,26.7597 -29.2684,116.2374 -49.3382,199.0253 -60.2094,244.1823 -79.4429,301.8829 -275.1233,836.2408 -71.0804,193.1717 -188.9904,541.0479 -277.6319,817.8436 -25.9235,81.1154 -49.3382,148.0146 -51.0107,148.0146 -2.5088,0 -1.6725,-23.4147 0,-51.8469 z"
       id="path2"
       style="fill:#ffffff;fill-opacity:1;stroke-width:0.836241" /></g></svg>
