<svg xmlns="http://www.w3.org/2000/svg" xml:space="preserve" id="katman_1" width="223.698" height="148" x="0" y="0" version="1.1"><style id="style1" type="text/css">.st0{fill-rule:evenodd;clip-rule:evenodd}</style><path id="path1" d="M82.297 24c5.5-6.8 8.1-15.4 7.3-24-8.4.8-16.3 4.9-21.9 11.3-5.6 6.3-8.4 14.4-7.9 22.8 8.6.4 17-3.4 22.5-10.1m7.1 11.5c-12.2-.8-22.6 6.9-28.1 6.9s-14.7-6.6-24.4-6.4c-12.8.3-24.5 7.5-30.6 18.7-13.2 22.6-3.5 56.4 9.4 74.5 6.2 9.4 13.6 18.8 23.5 18.8s12.9-6 24.2-6c11.3 0 14.5 6 24.4 5.8 9.9-.2 16.6-9.4 22.7-18.2 4.4-6.4 7.8-13.5 10.1-20.9-12-5.3-19.7-17.2-19.6-30.3.2-11.5 6.3-22.1 16-28.1-6.3-8.9-16.3-14.4-27.1-14.7" class="st0" style="fill:#fff;fill-opacity:1"/><path id="path2" d="M223.698 83.058h-39.7v-39.8h-18.9v39.8h-39.5v18.7h39.5v40h18.9v-40h39.7z" class="st0" style="fill:#fff;fill-opacity:1"/></svg>