<?xml version="1.0" encoding="UTF-8" standalone="no"?>
<svg
   xml:space="preserve"
   width="563.10602"
   height="173.267"
   viewBox="2600 -200 563.106 173.267"
   version="1.1"
   id="svg2"
   sodipodi:docname="hbo-max-dark.svg"
   inkscape:version="1.4 (86a8ad7, 2024-10-11)"
   xmlns:inkscape="http://www.inkscape.org/namespaces/inkscape"
   xmlns:sodipodi="http://sodipodi.sourceforge.net/DTD/sodipodi-0.dtd"
   xmlns="http://www.w3.org/2000/svg"
   xmlns:svg="http://www.w3.org/2000/svg"><defs
     id="defs2" /><sodipodi:namedview
     id="namedview2"
     pagecolor="#505050"
     bordercolor="#eeeeee"
     borderopacity="1"
     inkscape:showpageshadow="0"
     inkscape:pageopacity="0"
     inkscape:pagecheckerboard="0"
     inkscape:deskcolor="#505050"
     inkscape:zoom="1.2052541"
     inkscape:cx="287.07639"
     inkscape:cy="243.51712"
     inkscape:window-width="1920"
     inkscape:window-height="1051"
     inkscape:window-x="-9"
     inkscape:window-y="-9"
     inkscape:window-maximized="1"
     inkscape:current-layer="svg2" /><path
     d="m 2829.6288,-137.00208 c -0.9091,-41.08955 -29.999,-62.81611 -65.6342,-62.81611 -19.5448,0 -37.1806,6.54524 -49.1802,19.27209 -11.9996,-12.72685 -29.6354,-19.27209 -49.1802,-19.27209 -35.6352,0 -64.7251,21.81746 -65.6342,62.90701 v 93.9969 c 0,8.63607 6.9998,15.54494 15.545,15.54494 h 14.7268 c 1.4545,0 2.6362,-1.18178 2.6362,-2.63628 v -106.72374 c 0.6364,-20.27206 14.9995,-30.99898 32.7262,-30.99898 17.7267,0 32.0899,10.72692 32.7262,30.99898 v 93.72417 c 0,8.63608 6.9998,15.54494 15.545,15.54494 h 14.7267 c 1.4545,0 2.6363,-1.18178 2.6363,-2.63628 v -106.72374 c 0.6364,-20.27206 14.9995,-30.99898 32.7262,-30.99898 17.7267,0 32.0899,10.72692 32.7262,30.99898 v 93.72417 c 0,8.63608 6.9998,15.54495 15.5449,15.54495 h 14.7268 c 1.4545,0 2.6363,-1.18178 2.6363,-2.63628 v -106.72375 c 0.091,0.0909 0,0 0,-0.0909 z m 331.5345,-60.17983 h -24.9992 c -6.9088,0 -13.3632,3.45443 -17.2721,9.18151 l -27.6355,40.90774 c -3.6362,5.36346 -11.4541,5.36346 -15.0904,0 l -27.6354,-40.90774 c -3.8181,-5.72708 -10.3633,-9.18151 -17.2722,-9.18151 h -24.9992 c -1.5454,0 -2.4544,1.72721 -1.6363,2.9999 l 49.2711,73.08849 c 3.5454,5.27256 3.5454,12.18142 0,17.45397 l -49.2711,73.08849 c -0.909,1.27269 0.091,2.99991 1.6363,2.99991 h 24.9992 c 6.9089,0 13.3632,-3.45444 17.2722,-9.18152 l 27.6354,-40.90774 c 3.6363,-5.363457 11.4542,-5.363457 15.0904,0 l 27.6355,40.90774 c 3.818,5.72708 10.3633,9.18152 17.2721,9.18152 h 24.9992 c 1.5454,0 2.4545,-1.72722 1.6363,-2.99991 l -49.362,-72.99758 c -3.5453,-5.27256 -3.5453,-12.18142 0,-17.45397 l 49.2711,-73.08849 c 0.9091,-1.27269 0,-3.09081 -1.5454,-3.09081 z m -167.8126,0 h -14.7268 c -7.4543,0 -13.7268,5.27255 -15.2722,12.27232 C 2950.2612,-194.90926 2933.8072,-200 2916.0805,-200 c -43.0895,0 -78.0883,29.99901 -78.0883,86.6335 0,56.63449 34.9079,86.6335 78.0883,86.6335 17.6358,0 33.908,-4.99983 46.9984,-14.81769 0.7273,7.90883 7.3634,14.18135 15.545,14.18135 h 14.7268 c 1.4545,0 2.6362,-1.18178 2.6362,-2.63628 v -164.54001 c -0.091,-1.4545 -1.1817,-2.63628 -2.6362,-2.63628 z m -77.2702,138.26816 c -25.7264,0 -46.6348,-18.81756 -46.6348,-54.36184 0,-35.54428 20.9084,-54.36184 46.6348,-54.36184 25.7264,0 46.6348,18.81756 46.6348,54.36184 0,35.54428 -20.9084,54.36184 -46.6348,54.36184 z"
     style="fill:#991eeb;fill-opacity:1;stroke-width:0.909061"
     id="path2" /></svg>
