<svg xmlns="http://www.w3.org/2000/svg" xml:space="preserve" id="Layer_1" width="87.55" height="28.88" x="0" y="0" version="1.1"><style id="style1" type="text/css">.st0{fill-rule:evenodd;clip-rule:evenodd}</style><path id="path2" d="M19.46 10.8c1.45 1.18 2.18 3.02 2.18 5.52v12.56h-6.91V17.24c0-.51-.19-.95-.57-1.33-.38-.38-.83-.57-1.33-.57H8.81c-.51 0-.94.19-1.31.57-.36.38-.54.83-.54 1.33v11.64H0V0h6.96v9.41c.11-.04.36-.11.76-.22s.92-.16 1.58-.16h4.46c2.34 0 4.25.59 5.7 1.77zm21.92-1.77h6.96v12.18c0 2.28-.63 4.13-1.88 5.55-1.25 1.41-2.95 2.12-5.09 2.12h-6.85c-2.39 0-4.31-.66-5.74-1.99-1.43-1.32-2.15-3.22-2.15-5.68V9.03h6.96v11.64c0 .51.18.94.54 1.31.36.36.8.54 1.31.54h4.02c.51 0 .95-.18 1.33-.54.38-.36.57-.8.57-1.31V9.03ZM53.61 0h6.96v28.88h-6.96zm33.94 9.03v12.18c0 2.28-.63 4.13-1.88 5.55-1.25 1.41-2.95 2.12-5.09 2.12h-6.8c-2.43 0-4.36-.66-5.79-1.99-1.43-1.32-2.15-3.22-2.15-5.68V9.03h6.96v11.64c0 .51.18.94.54 1.31.36.36.8.54 1.31.54h4.08c.51 0 .94-.18 1.31-.54.36-.36.54-.8.54-1.31V9.03Z" style="fill-rule:evenodd;clip-rule:evenodd;fill:#1ce783"/></svg>