<?xml version="1.0" encoding="UTF-8" standalone="no"?>
<!-- Generator: Adobe Illustrator 22.0.1, SVG Export Plug-In . SVG Version: 6.00 Build 0)  -->

<svg
   version="1.1"
   id="Layer_1"
   x="0px"
   y="0px"
   width="415.108"
   height="319.923"
   viewBox="0 0 415.10801 319.923"
   xml:space="preserve"
   sodipodi:docname="prime-video-light - Copy.svg"
   inkscape:version="1.4 (86a8ad7, 2024-10-11)"
   xmlns:inkscape="http://www.inkscape.org/namespaces/inkscape"
   xmlns:sodipodi="http://sodipodi.sourceforge.net/DTD/sodipodi-0.dtd"
   xmlns="http://www.w3.org/2000/svg"
   xmlns:svg="http://www.w3.org/2000/svg"
   xmlns:rdf="http://www.w3.org/1999/02/22-rdf-syntax-ns#"
   xmlns:cc="http://creativecommons.org/ns#"
   xmlns:dc="http://purl.org/dc/elements/1.1/"><defs
   id="defs16">
	

		
		
		
		
		
		
		
		
		
		
		
		
		
		
		
		
	</defs><sodipodi:namedview
   id="namedview16"
   pagecolor="#505050"
   bordercolor="#eeeeee"
   borderopacity="1"
   inkscape:showpageshadow="0"
   inkscape:pageopacity="0"
   inkscape:pagecheckerboard="0"
   inkscape:deskcolor="#505050"
   inkscape:zoom="2.2429089"
   inkscape:cx="153.59518"
   inkscape:cy="240.09"
   inkscape:window-width="1920"
   inkscape:window-height="1051"
   inkscape:window-x="-9"
   inkscape:window-y="-9"
   inkscape:window-maximized="1"
   inkscape:current-layer="Layer_1" />
<title
   id="title1">Prime Video Logo</title>
<g
   id="g16"
   transform="translate(-190.92535,-131.79138)"
   inkscape:label="arrow"><path
     style="fill:#00a8e1"
     d="m 404.9332,451.71414 c -4,-0.1 -8,-0.1 -12,0 -5.5,-0.3 -11,-0.5 -16.5,-0.9 -14.6,-1.1 -29.1,-3.3 -43.3,-6.6 -49.1,-11.4 -92.2,-34.3 -129.8,-67.6 -3.5,-3.1 -6.8,-6.3 -10.2,-9.5 -0.8,-0.7 -1.5,-1.7 -1.9,-2.7 -0.6,-1.4 -0.3,-2.9 0.7,-4 1,-1.1 2.6,-1.5 4,-0.9 0.9,0.4 1.8,0.8 2.6,1.3 35.9,22.2 75.1,38.4 116.2,48 13.8,3.2 27.7,5.7 41.7,7.5 20.1,2.5 40.4,3.4 60.6,2.7 10.9,-0.3 21.7,-1.3 32.5,-2.7 25.2,-3.2 50.1,-8.9 74.2,-16.9 12.7,-4.2 25.1,-9 37.2,-14.6 1.8,-1 4,-1.3 6,-0.8 3.3,0.8 5.3,4.2 4.5,7.5 -0.1,0.4 -0.3,0.9 -0.5,1.3 -0.8,1.5 -1.9,2.8 -3.3,3.8 -11.5,9 -23.9,16.9 -37,23.5 -24.7,12.5 -51.1,21.4 -78.3,26.5 -15.7,2.8 -31.5,4.5 -47.4,5.1 z"
     id="path2" /><path
     style="fill:#00a8e1"
     d="m 576.8332,354.21414 c 6.6,0.2 13.1,0.6 19.5,2.3 1.8,0.5 3.5,1.1 5.2,1.9 2.3,0.9 3.8,3.1 4.1,5.5 0.4,2.8 0.5,5.7 0.3,8.6 -1.3,17.1 -6.6,33.6 -15.4,48.3 -3.2,5.3 -7.1,10.1 -11.6,14.3 -0.9,0.9 -2,1.6 -3.2,2 -1.9,0.5 -3.1,-0.5 -3.2,-2.4 0.1,-1 0.3,-2 0.7,-3 3.5,-9.4 6.9,-18.7 9.6,-28.4 1.6,-5.3 2.7,-10.7 3.4,-16.2 0.2,-2 0.3,-4 0.1,-6 -0.1,-3.4 -2.3,-6.3 -5.6,-7.3 -3.1,-1 -6.3,-1.6 -9.6,-1.8 -9.2,-0.4 -18.4,0 -27.5,1.2 l -12.1,1.5 c -1.3,0.1 -2.5,0 -3.2,-1.2 -0.7,-1.2 -0.4,-2.4 0.3,-3.6 0.8,-1.1 1.8,-2.1 3,-2.8 7.4,-5.3 15.7,-8.5 24.5,-10.6 6.8,-1.4 13.7,-2.1 20.7,-2.3 z"
     id="path6" /></g><g
   id="g19"
   inkscape:label="prime"
   transform="matrix(0.84361786,0,0,0.84361786,5.7753422,-256.67674)"><path
     style="fill:#00a8e1"
     d="m 302.86164,347.37628 c 2.5,-1.5 5.1,-3.1 7.8,-4.5 7,-3.6 14.8,-5.4 22.7,-5 5.7,0.3 10.9,1.9 14.9,6.1 3.8,3.9 5.2,8.7 5.6,13.9 0.1,1.1 0.1,2.2 0.1,3.4 v 51.8 c 0,4.5 -0.6,5.1 -5.1,5.1 h -12.2 c -0.8,0 -1.6,0 -2.4,-0.1 -1.2,-0.1 -2.2,-1.1 -2.4,-2.3 -0.2,-1.1 -0.2,-2.2 -0.2,-3.3 v -46.3 c 0.1,-1.9 -0.1,-3.7 -0.6,-5.5 -0.8,-3.1 -3.6,-5.3 -6.8,-5.5 -5.9,-0.4 -11.8,0.8 -17.2,3.3 -0.8,0.2 -1.3,1 -1.2,1.8 v 52.6 c 0,1 0,1.9 -0.2,2.9 0,1.4 -1.1,2.4 -2.5,2.4 0,0 0,0 0,0 -1.5,0.1 -3,0.1 -4.6,0.1 h -10.6 c -3.7,0 -4.5,-0.9 -4.5,-4.6 v -47.3 c 0,-1.7 -0.1,-3.5 -0.5,-5.2 -0.7,-3.4 -3.6,-5.8 -7,-6 -6,-0.4 -12.1,0.8 -17.5,3.4 -0.8,0.2 -1.3,1.1 -1.1,1.9 v 53.3 c 0,3.7 -0.8,4.5 -4.5,4.5 h -13.4 c -3.5,0 -4.4,-1 -4.4,-4.4 v -69.4 c 0,-0.8 0.1,-1.6 0.3,-2.4 0.4,-1.2 1.6,-1.9 2.8,-1.9 h 12.5 c 1.8,0 2.9,1.1 3.5,2.8 0.5,1.4 0.8,2.7 1.3,4.2 1,0 1.6,-0.7 2.3,-1.1 5.5,-3.4 11.3,-6.3 17.8,-7.5 5,-1 10,-1 15,0 4.7,1 8.9,3.8 11.6,7.8 0.2,0.3 0.4,0.5 0.6,0.7 -0.1,0.1 0,0.1 0.1,0.3 z"
     id="path3" /><path
     style="fill:#00a8e1"
     d="m 155.06164,351.17628 c 0.7,-0.2 1.3,-0.6 1.7,-1.2 1.8,-1.8 3.7,-3.5 5.7,-5.1 5.2,-4 11.7,-6 18.2,-5.5 2.6,0.1 3.5,0.9 3.7,3.4 0.2,3.4 0.1,6.9 0.1,10.3 0.1,1.4 0,2.7 -0.2,4.1 -0.4,1.8 -1.1,2.5 -2.9,2.7 -1.4,0.1 -2.7,0 -4.1,-0.1 -6.7,-0.6 -13.2,0.7 -19.5,2.8 -1.4,0.5 -1.4,1.5 -1.4,2.6 v 48 c 0,0.9 0,1.7 -0.1,2.6 -0.1,1.3 -1.1,2.3 -2.4,2.3 -0.7,0.1 -1.5,0.1 -2.2,0.1 h -13 c -0.7,0 -1.5,0 -2.2,-0.1 -1.3,-0.1 -2.3,-1.2 -2.4,-2.5 -0.1,-0.8 -0.1,-1.6 -0.1,-2.4 v -68 c 0,-4.6 0.5,-5.1 5.1,-5.1 h 9.6 c 2.6,0 3.8,0.9 4.5,3.4 0.7,2.5 1.3,5 1.9,7.7 z"
     id="path5" /><path
     style="fill:#00a8e1"
     d="m 194.06164,378.97628 v -35.5 c 0.1,-2.4 1,-3.3 3.4,-3.4 5.2,-0.1 10.4,-0.1 15.6,0 2.3,0 3,0.7 3.2,3 0.1,0.9 0.1,1.7 0.1,2.6 v 66.6 c 0,1.1 -0.1,2.2 -0.2,3.3 -0.1,1.3 -1.1,2.2 -2.4,2.3 -0.6,0.1 -1.1,0.1 -1.7,0.1 h -13.9 c -0.5,0 -0.9,0 -1.4,-0.1 -1.4,-0.1 -2.6,-1.2 -2.7,-2.6 -0.1,-0.8 -0.1,-1.6 -0.1,-2.4 0.1,-11.1 0.1,-22.5 0.1,-33.9 z"
     id="path8" /><path
     style="fill:#00a8e1"
     d="m 205.66164,304.27628 c 1.6,-0.1 3.2,0.2 4.7,0.7 5.4,1.8 8.2,6.5 7.7,12.6 -0.4,5.2 -4.3,9.4 -9.5,10.2 -2.2,0.4 -4.5,0.4 -6.7,0 -5.7,-1.1 -9.9,-5.3 -9.5,-12.5 0.6,-7.1 5.3,-11 13.3,-11 z"
     id="path9" /><path
     style="fill:#00a8e1"
     d="m 119.16164,370.77628 c -0.4,-5.2 -1.8,-10.3 -3.9,-15 -4.1,-8.6 -10.4,-14.9 -20.000001,-17.1 -11,-2.4 -20.9,0 -29.9,6.7 -0.6,0.6 -1.3,1.1 -2.1,1.5 -0.2,-0.1 -0.4,-0.2 -0.4,-0.3 -0.3,-1 -0.5,-2 -0.8,-3 -0.8,-2.5 -1.8,-3.4 -4.5,-3.4 -3,0 -6.1,0.1 -9.1,0 -2.3,-0.1 -4.4,0.2 -6,2 0,35 0,70.1 0.1,105 1.3,2.1 3.3,2.5 5.6,2.4 3.6,-0.1 7.2,0 10.8,0 6.3,0 6.3,0 6.3,-6.2 v -28.5 c 0,-0.7 -0.3,-1.5 0.4,-2.1 5,3.9 11.1,6.3 17.4,6.9 8.8,0.9 16.8,-1.3 23.500001,-7.3 4.9,-4.5 8.5,-10.3 10.4,-16.7 2.7,-8.2 2.9,-16.5 2.2,-24.9 z m -23.900001,20.7 c -0.7,3.1 -2.3,5.9 -4.6,8 -2.6,2.2 -5.8,3.5 -9.2,3.5 -5.1,0.3 -10.1,-0.8 -14.6,-3.2 -1.1,-0.5 -1.8,-1.6 -1.7,-2.8 v -18.1 c 0,-6 0.1,-12 0,-18 -0.1,-1.4 0.7,-2.6 2,-3.1 5.5,-2.6 11.2,-3.8 17.2,-2.6 4.2,0.6 7.8,3.3 9.5,7.2 1.5,3.2 2.4,6.7 2.6,10.2 0.6,6.4 0.6,12.8 -1.2,18.9 z"
     id="path11" /><path
     style="fill:#00a8e1"
     d="m 390.46164,385.47628 c 7.5,1.4 15.2,1.5 22.7,0.3 4.4,-0.6 8.6,-1.9 12.5,-4 4.5,-2.6 7.8,-6.2 9.2,-11.2 3.5,-12.6 -1.9,-25.3 -15,-30 -6.4,-2.1 -13.2,-2.8 -19.9,-1.9 -15.8,1.8 -26.1,10.5 -30.8,25.6 -3.3,10.3 -2.9,20.8 -0.2,31.2 3.5,13.3 12.3,21.2 25.6,24 7.6,1.7 15.3,1.4 22.9,0.2 4,-0.7 8,-1.7 11.8,-3.2 2.3,-0.9 3.5,-2.3 3.4,-4.9 -0.1,-2.4 0,-4.9 0,-7.4 0,-3 -1.2,-3.9 -4.1,-3.2 -2.9,0.7 -5.7,1.3 -8.6,1.9 -6.2,1.3 -12.6,1.3 -18.8,0.2 -8.5,-1.7 -14,-9 -13.5,-18 0.9,0.1 1.9,0.2 2.8,0.4 z m -2.5,-15.3 c 0.3,-2.4 1,-4.7 1.9,-6.9 3,-7.3 9.3,-9.8 15.7,-9.4 1.8,0.1 3.6,0.5 5.3,1.2 2.6,1.1 4.3,3.5 4.6,6.3 0.3,1.7 0.2,3.5 -0.3,5.2 -1.2,3.6 -4.1,5.1 -7.6,5.8 -2.1,0.5 -4.3,0.7 -6.5,0.5 -3.9,0 -7.9,-0.3 -11.8,-0.9 -1.5,-0.2 -1.5,-0.2 -1.3,-1.8 z"
     id="path15" /></g><g
   id="g18"
   transform="matrix(0.84361786,0,0,0.84361786,-307.72567,-53.09087)"
   inkscape:label="video"
   style="fill:#f6f6f6;fill-opacity:1"><path
     style="fill:#f6f6f6;fill-opacity:1"
     d="m 464.1332,298.81414 c 0.6,-2 1.2,-3.9 1.8,-5.9 4.6,-15.5 9.2,-30.9 13.8,-46.4 l 0.6,-1.8 c 0.5,-1.8 2.2,-2.9 4,-2.9 h 15.2 c 3.8,0 4.6,1.1 3.3,4.7 l -6,15.9 c -6.7,17.4 -13.4,34.9 -20.1,52.3 -0.2,0.6 -0.5,1.2 -0.7,1.8 -0.7,2.1 -2.8,3.5 -5,3.3 -4.4,-0.1 -8.8,-0.1 -13.2,0 -3.1,0.1 -4.9,-1.3 -6,-4.1 -2.5,-6.6 -5.1,-13.3 -7.6,-19.9 -6,-15.7 -12.1,-31.4 -18.1,-47.2 -0.6,-1.2 -1,-2.6 -1.3,-3.9 -0.3,-2 0.4,-3 2.4,-3 5.7,-0.1 11.4,0 17,0 2.4,0 3.5,1.6 4.1,3.7 1.1,3.8 2.2,7.7 3.4,11.5 4.1,13.9 8.1,27.9 12.2,41.8 -0.1,0.1 0,0.1 0.2,0.1 z"
     id="path4" /><path
     style="fill:#f6f6f6;fill-opacity:1"
     d="m 534.9332,280.81414 v 36 c -0.2,2 -1.1,2.9 -3.1,3 -5.4,0.1 -10.7,0.1 -16.1,0 -2,0 -2.9,-1 -3.1,-2.9 -0.1,-0.6 -0.1,-1.3 -0.1,-1.9 v -69.2 c 0.1,-3.1 0.9,-4 4,-4 h 14.4 c 3.1,0 4,0.9 4,4 z"
     id="path7" /><path
     style="fill:#f6f6f6;fill-opacity:1"
     d="m 523.8332,205.91414 c 2,-0.2 4,0.2 5.9,1 3.9,1.5 6.6,5.1 6.8,9.3 0.8,9.1 -5.3,13.7 -13.4,13.5 -1.1,0 -2.2,-0.2 -3.3,-0.4 -6.2,-1.5 -9.4,-6.3 -8.8,-13.2 0.5,-5.5 4.8,-9.6 10.7,-10.1 0.7,-0.1 1.4,-0.2 2.1,-0.1 z"
     id="path10" /><path
     d="m 757.82812,239.20117 c -2.39472,0.0322 -4.79531,0.23828 -7.19531,0.61328 -13.5,2 -23.20039,9.2 -27.90039,22 -4.6,12.2 -4.49844,25.59883 0.10156,37.79883 4,11.1 12,18.1 23.5,21 6.1,1.5 12.49883,1.9 18.79883,1 18.07106,-2.15132 27.01786,-14.22386 30.0586,-26.34375 0.65993,-1.79027 1.17244,-4.93876 1.43164,-8.79492 0.0426,-0.57993 0.0791,-1.17339 0.10937,-1.77734 0.061,-1.29088 0.0931,-2.61947 0.0957,-3.95508 -8.9e-4,-1.37356 -0.0331,-2.74081 -0.0957,-4.06836 -0.0273,-0.59354 -0.0605,-1.17783 -0.0996,-1.75 -0.0809,-1.16831 -0.18575,-2.27938 -0.3125,-3.31055 h 0.11328 c 0,-0.1 -0.0996,-0.0992 -0.0996,-0.19922 -0.2,-1.9 -0.60156,-3.79961 -1.10156,-5.59961 -3.7,-13.2 -12,-21.90078 -25.5,-25.30078 -3.9375,-0.9375 -7.91308,-1.36621 -11.9043,-1.3125 z m 1.25586,17.48828 c 0.95,0.025 1.89961,0.12422 2.84961,0.32422 4,0.8 7.29961,3.39961 9.09961,7.09961 1.7,3.5 2.70039,7.40078 2.90039,11.30078 0.1,1.8 0.19961,3.60039 0.0996,5.40039 0.3,4.4 -0.20039,8.69883 -1.40039,12.79883 -0.6,2.1 -1.49883,4.00078 -2.79883,5.80078 -2.2,3.1 -5.7,5.10039 -9.5,5.40039 -1.9,0.2 -3.80117,0.19883 -5.70117,-0.20117 -4.2,-0.8 -7.70039,-3.6 -9.40039,-7.5 -1.5,-3.1 -2.39922,-6.49844 -2.69922,-9.89844 -0.5,-5.9 -0.59922,-11.80156 0.80078,-17.60156 0.5,-2.3 1.49922,-4.59961 2.69922,-6.59961 2.2,-3.6 5.99922,-5.89922 10.19922,-6.19922 0.95,-0.1 1.90156,-0.15 2.85156,-0.125 z"
     style="fill:#f6f6f6;fill-opacity:1"
     id="path18" /><path
     style="fill:#f6f6f6;fill-opacity:1"
     d="m 621.3332,206.61414 h -13.9 c -3.8,0 -4.5,0.7 -4.5,4.5 v 32.4 c 0,0.7 0.3,1.4 -0.2,2.1 -0.9,-0.1 -1.4,-0.7 -2.1,-1.1 -10.4,-6.1 -21.3,-7.2 -32.3,-2.1 -7.7,3.6 -12.5,10.1 -15.6,17.8 -3,7.4 -3.7,15.2 -3.5,23.1 0,7.4 1.7,14.7 5,21.3 3.8,7.3 9.3,12.9 17.3,15.3 10.9,3.4 21.1,1.7 30.4,-5.2 0.7,-0.4 1.1,-1.1 2,-1.3 0.5,1.1 0.9,2.3 1.1,3.5 0.4,1.6 1.8,2.7 3.5,2.7 h 2.4 c 3.6,0 7.1,0.1 10.6,0 2.8,0 3.6,-0.9 3.7,-3.8 v -105.4 c -0.1,-3.1 -0.9,-3.8 -3.9,-3.8 z m -18.3,73.6 v 18.2 c 0.2,1.2 -0.5,2.3 -1.6,2.8 -4.8,2.7 -10.3,3.8 -15.7,3 -4.6,-0.5 -8.6,-3.3 -10.7,-7.4 -1.6,-3.2 -2.5,-6.6 -2.8,-10.1 -0.8,-6.3 -0.3,-12.7 1.2,-18.8 0.5,-1.7 1.1,-3.3 2,-4.9 2.1,-3.9 6.1,-6.4 10.5,-6.7 5.3,-0.5 10.6,0.5 15.4,2.7 1.2,0.4 1.9,1.6 1.8,2.9 -0.2,6.2 -0.1,12.2 -0.1,18.3 z"
     id="path14"
     inkscape:label="path14" /><path
     style="fill:#f6f6f6;fill-opacity:1"
     d="m 681.7332,288.11414 c 5.8,-0.4 11.6,-1.5 16.8,-4.3 5.3,-2.6 9,-7.5 10.1,-13.3 0.7,-3.6 0.7,-7.4 -0.1,-11 -2.1,-9 -7.8,-14.6 -16.4,-17.5 -4.8,-1.5 -9.9,-2.1 -14.9,-1.9 -16.8,0.4 -29.6,8.9 -34.8,25.7 -3.5,11.1 -3,22.4 0.4,33.5 3.5,11.4 11.5,18.3 22.9,21.4 4.9,1.2 10,1.7 15,1.5 7.3,-0.1 14.6,-1.5 21.5,-4.1 2.9,-1.1 3.6,-2.1 3.6,-5.2 v -7.2 c -0.1,-2.9 -1.3,-3.9 -4.2,-3.2 -2.2,0.6 -4.3,1.1 -6.5,1.6 -6.7,1.6 -13.7,1.9 -20.5,0.7 -6.8,-1.3 -11.4,-5.2 -13.2,-12 -0.5,-2 -0.9,-4 -1.1,-6.1 0.5,0 1,0 1.4,0.2 6.6,1.2 13.3,1.7 20,1.2 z m -20.9,-16 c 0.7,-3.9 1.6,-7.7 4,-10.9 3.7,-4.9 8.8,-6.3 14.6,-5.7 0.5,0 0.9,0.2 1.4,0.2 7,1.1 8.7,6.7 7.4,12.1 -1,4 -4.3,5.5 -8,6.2 -2,0.4 -4.1,0.6 -6.2,0.5 -4.1,-0.1 -8.1,-0.4 -12.1,-1 -0.9,-0.1 -1.3,-0.5 -1.1,-1.4 z"
     id="path16" /></g>
<metadata
   id="metadata16"><rdf:RDF><cc:Work
       rdf:about=""><dc:title>Prime Video Logo</dc:title></cc:Work></rdf:RDF></metadata></svg>
