<?xml version="1.0" encoding="UTF-8" standalone="no"?>
<svg
   xml:space="preserve"
   id="katman_1"
   width="223.698"
   height="148"
   x="0"
   y="0"
   version="1.1"
   sodipodi:docname="apple-tv-plus-light.svg"
   inkscape:version="1.4 (86a8ad7, 2024-10-11)"
   xmlns:inkscape="http://www.inkscape.org/namespaces/inkscape"
   xmlns:sodipodi="http://sodipodi.sourceforge.net/DTD/sodipodi-0.dtd"
   xmlns="http://www.w3.org/2000/svg"
   xmlns:svg="http://www.w3.org/2000/svg"><defs
     id="defs1" /><sodipodi:namedview
     id="namedview1"
     pagecolor="#505050"
     bordercolor="#eeeeee"
     borderopacity="1"
     inkscape:showpageshadow="0"
     inkscape:pageopacity="0"
     inkscape:pagecheckerboard="0"
     inkscape:deskcolor="#505050"
     inkscape:zoom="4.084975"
     inkscape:cx="85.679839"
     inkscape:cy="81.151048"
     inkscape:window-width="1920"
     inkscape:window-height="1051"
     inkscape:window-x="-9"
     inkscape:window-y="-9"
     inkscape:window-maximized="1"
     inkscape:current-layer="g1" /><style
     id="style1"
     type="text/css">.st0{fill-rule:evenodd;clip-rule:evenodd}</style><g
     id="g1"><path
       id="path1"
       d="m 82.297,24 c 5.5,-6.8 8.1,-15.4 7.3,-24 -8.4,0.8 -16.3,4.9 -21.9,11.3 -5.6,6.3 -8.4,14.4 -7.9,22.8 8.6,0.4 17,-3.4 22.5,-10.1 m 7.1,11.5 c -12.2,-0.8 -22.6,6.9 -28.1,6.9 -5.5,0 -14.7,-6.6 -24.4,-6.4 -12.8,0.3 -24.5,7.5 -30.6,18.7 -13.2,22.6 -3.5,56.4 9.4,74.5 6.2,9.4 13.6,18.8 23.5,18.8 9.9,0 12.9,-6 24.2,-6 11.3,0 14.5,6 24.4,5.8 9.9,-0.2 16.6,-9.4 22.7,-18.2 4.4,-6.4 7.8,-13.5 10.1,-20.9 -12,-5.3 -19.7,-17.2 -19.6,-30.3 0.2,-11.5 6.3,-22.1 16,-28.1 -6.3,-8.9 -16.3,-14.4 -27.1,-14.7"
       class="st0"
       sodipodi:nodetypes="ccccccscccsssccccc" /></g><path
     id="path2"
     d="M223.698 83.058h-39.7v-39.8h-18.9v39.8h-39.5v18.7h39.5v40h18.9v-40h39.7z"
     class="st0" /><path
     d="m 42.705193,65.270636 v 9.219163 h 7.411484 v 6.088591 h -7.411484 v 21.68804 c 0,3.35653 1.47901,4.91155 4.718453,4.91155 0.813455,0 2.144564,-0.11298 2.662218,-0.18282 v 6.12145 c -0.887406,0.18488 -2.662218,0.33278 -4.395947,0.33278 -7.67031,0 -10.655035,-2.95186 -10.655035,-10.40442 V 80.582499 H 29.34891 v -6.088592 h 5.685972 V 65.274744 Z M 76.069195,113.14332 H 67.924369 L 54.237363,74.498016 h 8.09758 l 9.607403,31.059214 h 0.182822 l 9.605349,-31.059214 h 7.95995 z"
     style="fill:#ffffff;fill-opacity:1;stroke-width:2.05418"
     id="path1-4" /></svg>
