<?xml version="1.0" encoding="UTF-8" standalone="no"?>
<svg
   xml:space="preserve"
   id="disneyplus__Layer_1"
   width="258.338"
   height="139.486"
   x="0"
   y="0"
   version="1.1"
   sodipodi:docname="disney-plus.svg"
   inkscape:version="1.4 (86a8ad7, 2024-10-11)"
   xmlns:inkscape="http://www.inkscape.org/namespaces/inkscape"
   xmlns:sodipodi="http://sodipodi.sourceforge.net/DTD/sodipodi-0.dtd"
   xmlns="http://www.w3.org/2000/svg"
   xmlns:svg="http://www.w3.org/2000/svg"><defs
     id="defs1" /><sodipodi:namedview
     id="namedview1"
     pagecolor="#505050"
     bordercolor="#eeeeee"
     borderopacity="1"
     inkscape:showpageshadow="0"
     inkscape:pageopacity="0"
     inkscape:pagecheckerboard="0"
     inkscape:deskcolor="#505050"
     inkscape:zoom="2.1671577"
     inkscape:cx="38.299012"
     inkscape:cy="69.445798"
     inkscape:window-width="1920"
     inkscape:window-height="1051"
     inkscape:window-x="-9"
     inkscape:window-y="-9"
     inkscape:window-maximized="1"
     inkscape:current-layer="disneyplus__Layer_1" /><style
     id="style1"
     type="text/css">.disneyplus__st1{fill:url(#disneyplus__SVGID_1_)}</style><g
     id="g8"
     style="fill:#0378ff;fill-opacity:1"><path
       id="path1"
       d="M65.169 80.583s-5.7.4-9.7.8c-5 .5-14.5 2.2-19.9 4.1-1.6.6-5 2-5.2 3.7-.3 1.7.8 3.1 2 4.5.7.8 4.6 4.6 5.7 5.5 4.6 3.9 14 9.8 20.9 12.7 2.4 1 6.3 2.4 6.3 2.4s-.3-11.2-.2-22.2c0-5.8.1-11.5.1-11.5m105.2 4.4c.3 3-.4 8.7-.6 9.4-.2 1.7-1.5 5.7-1.8 6.2-1.1 2.4-2.1 4.4-3.2 6.4-1.9 3.4-6.4 8.8-9 11.1-9.9 8.5-25.2 13.4-38.3 15-8.9 1.1-19.1.9-28.6-.8-3.2-.6-8.1-1.7-8.1-1.7s0 1.9-.1 3.3c-.1.6-.5 2.3-.8 2.8-.7 1.4-1.8 2.1-3.4 2.5-2 .4-4.1.5-5.9-.3-3-1.3-4.1-4.1-4.6-7.3-.4-2.6-.9-7.1-.9-7.1s-2.2-1.1-4.1-2c-5.7-2.8-11.2-6.3-16-9.8-1.3-1-7-5.7-8.3-6.9-3.5-3.3-6.7-6.7-9.1-10.9-1.9-3.3-2.4-6.3-1-9.8 2-4.9 9-8.6 13.8-10.7 3.5-1.6 14.6-5.2 19.1-5.8 2.2-.3 5.5-.9 5.7-1l.2-.2c.1-.1.3-5 .2-6.8 0-1.8 1.3-13.2 1.7-15.7.2-1.3 1.2-6.4 2.2-7.7.7-.9 1.8-.8 2.8-.2 5.2 3.3 6.8 14.6 7.2 20.3.2 3.5.4 8.8.4 8.8s6-.2 9.7-.1c3.6.1 7.6.7 11.3 1.2 4.8.8 14.1 2.8 19.4 5.5 4.4 2.2 8.5 6 9.9 10 1.2 3.6 1.1 6.2-.8 9.5-2.1 3.7-6.1 6.5-10.2 6.7-1.2.1-5.8-.5-7.2-1.6-.5-.4-.5-1.2-.1-1.7.1-.2 2.3-1.3 3.5-2 .6-.3 1.2-.7 1.6-1.2 1-.9 2-1.9 1.9-3.1-.1-1.5-1.8-2.5-3.3-3.1-7.3-2.9-21.9-5.3-28.9-5.7-2.8-.2-6.7-.3-6.7-.3l.8 38.9s3.2.6 5.8 1c1.5.2 7.7.8 9.3.8 12.6.3 26.6-.8 38.1-6.2 5.1-2.4 9.7-5.3 13.2-9.4 4.6-5.3 7.1-12.6 6.4-20.2-.7-8.3-6.5-18.1-11.2-24.1-12.3-15.8-33.4-28.9-52-36.5-19-7.8-37.7-12.3-57.8-13-5.2-.2-16.5.1-22.2 1.7-.8.2-1.6.5-2.4.7-.6.1-1.5.5-1.8.8l-.3.3s.4.2.7.3c.6.3 3.2.4 4.5.7 1.2.2 2.4.8 2.9 1.7.5.8.5 1.5 0 2.2-1.3 1.6-6.2 1.3-8.3 1-2.2-.4-5-1-5.5-3-.6-2.3.5-4.5 1.7-6.6 2.4-4.2 5.7-6.3 10.7-7.7 7-1.9 15.9-3.3 22.5-3.5 15-.6 29.2 2.1 43.8 6.5 8.3 2.5 19.2 6.7 27.2 10.6 5.7 2.8 14.8 7.8 19.8 11.2 1.6 1.1 11 7.9 12.4 9.1 3 2.5 7 6 9.9 8.9 5.6 5.5 12.5 13.9 15.8 20.7.8 1.6 1.4 3.2 2.5 5 .4.6 1.9 4.4 2.1 5.5.3 1.1.6 2.7.7 2.8.5.1 1.2 3.3 1.1 4.6zm85.269-15.676h-31.1c-.6-10.6-1.9-20.9-3.9-31.5-.2-1.1-1.2-1.9-2.3-1.9h-7.2c-.6 0-1.2.3-1.6.8-.4.5-.6 1.1-.4 1.8 2 10.3 3.3 20.4 4 30.9h-29.9c-1.4 0-2.5 1.1-2.5 2.5v6.5c0 1.4 1.1 2.5 2.5 2.5h30.4v4.4c0 9.3-.4 17-1.3 25.7-.1.7.1 1.3.6 1.8.4.5 1.1.8 1.7.8h6.7c1.3 0 2.4-1 2.5-2.3.9-8.7 1.3-16.5 1.3-26v-4.4h30.7c1.4 0 2.5-1.1 2.5-2.5v-6.5c-.2-1.5-1.3-2.6-2.7-2.6z"
       style="fill:#0378ff;fill-opacity:1" /><radialGradient
       id="disneyplus__SVGID_1_"
       cx="1775.139"
       cy="146.126"
       r="756.556"
       gradientTransform="translate(-374.472 83.852) scale(.4759)"
       gradientUnits="userSpaceOnUse"><stop
         id="stop1"
         offset="0"
         style="stop-color:#01147b" /><stop
         id="stop2"
         offset=".025"
         style="stop-color:#011098" /><stop
         id="stop3"
         offset=".064"
         style="stop-color:#010abd" /><stop
         id="stop4"
         offset=".103"
         style="stop-color:#0006da" /><stop
         id="stop5"
         offset=".142"
         style="stop-color:#0003ee" /><stop
         id="stop6"
         offset=".179"
         style="stop-color:#0001fb" /><stop
         id="stop7"
         offset=".216"
         style="stop-color:#00f" /><stop
         id="stop8"
         offset="1"
         style="stop-color:#0ff;stop-opacity:0" /></radialGradient></g></svg>
