<svg xmlns="http://www.w3.org/2000/svg" xml:space="preserve" width="42.667" height="53.959" viewBox="110.667 172.481 42.667 53.959"><path d="M126.954 172.481c-8.984 0-16.287 7.303-16.287 16.287v37.672h7.723v-20.91l2.837 2.993 11.349-4.464c17.22-6.72 12.005-31.578-5.622-31.578zm2.89 24.747-11.453 4.466v-12.925c0-5.202 3.889-8.931 8.564-8.931 4.676 0 8.564 3.782 8.564 8.931 0 3.257-1.576 6.83-5.674 8.46z" style="stroke-width:1.41859;fill:#fff;fill-opacity:1"/><path fill="#069de0" d="M150.038 209.683a3.304 3.304 0 0 0-3.297 3.297 3.303 3.303 0 0 0 3.297 3.295 3.303 3.303 0 0 0 3.296-3.295 3.303 3.303 0 0 0-3.296-3.297z"/><path fill="#6e55dc" d="M150.038 200.683a3.304 3.304 0 0 0-3.297 3.297 3.303 3.303 0 0 0 3.297 3.295 3.303 3.303 0 0 0 3.296-3.295c-.037-1.853-1.481-3.297-3.296-3.297z"/><path fill="#05ac3f" d="M150.038 218.683a3.304 3.304 0 0 0-3.297 3.297 3.303 3.303 0 0 0 3.297 3.295 3.303 3.303 0 0 0 3.296-3.295 3.303 3.303 0 0 0-3.296-3.297z"/><path fill="#ef1541" d="M150.038 191.645a3.304 3.304 0 0 0-3.297 3.297 3.304 3.304 0 0 0 3.297 3.296 3.303 3.303 0 0 0 3.296-3.296c-.037-1.815-1.481-3.297-3.296-3.297z"/><path fill="#ff7112" d="M150.038 182.645a3.304 3.304 0 0 0-3.297 3.297 3.304 3.304 0 0 0 3.297 3.296 3.303 3.303 0 0 0 3.296-3.296c-.037-1.815-1.481-3.297-3.296-3.297z"/><path fill="#fccc12" d="M150.038 173.645a3.304 3.304 0 0 0-3.297 3.297 3.304 3.304 0 0 0 3.297 3.296 3.303 3.303 0 0 0 3.296-3.296c-.037-1.815-1.481-3.297-3.296-3.297z"/></svg>